<svg width="14" height="14" viewBox="0 0 14 14" fill="none" xmlns="http://www.w3.org/2000/svg">
<path fill-rule="evenodd" clip-rule="evenodd" d="M6.56254 0H7.43746C7.47276 0.00741579 7.50758 0.0164922 7.54299 0.0231961C7.94186 0.0880991 8.34774 0.126187 8.73878 0.222533C11.3786 0.877971 13.4452 3.11766 13.8938 5.79428C13.9364 6.04939 13.9649 6.30662 14 6.56256V7.4378C13.9921 7.4779 13.9829 7.51647 13.9763 7.5561C13.911 7.95091 13.8731 8.35196 13.777 8.73924C13.1195 11.3818 10.8788 13.4497 8.20614 13.8939C7.95106 13.9366 7.69373 13.9651 7.43746 14H6.56254C6.52285 13.9933 6.48335 13.9842 6.44342 13.9767C6.01406 13.9025 5.5758 13.8612 5.15616 13.7487C2.55198 13.0524 0.550556 10.8476 0.106421 8.20572C0.0635919 7.95062 0.0352365 7.69373 0 7.4378V6.56238C0.00830491 6.51913 0.0166692 6.47553 0.0247368 6.43068C0.106421 5.97891 0.139997 5.51302 0.277562 5.0797C1.14523 2.34511 2.98858 0.687197 5.80762 0.105957C6.05612 0.0544622 6.31072 0.0344093 6.56254 0ZM1.75056 6.99333C1.74462 9.89438 4.09521 12.2431 7.01029 12.2505C9.86955 12.2576 12.2442 9.89693 12.2499 7.04126C12.2558 4.13926 9.91998 1.75499 7.06528 1.74989C4.11603 1.74479 1.75643 4.07234 1.75056 6.99333ZM7.8756 3.50933C7.8756 4.07886 7.8756 4.63861 7.8756 5.19841C7.8756 5.88137 7.87667 6.56434 7.87282 7.24766C7.87448 7.30889 7.85484 7.3688 7.81723 7.41715C7.15078 8.09031 6.48168 8.7607 5.80994 9.42832C5.79748 9.44018 5.78223 9.45027 5.77606 9.45584C5.36444 9.04453 4.95702 8.63761 4.54314 8.22399C4.5696 8.19682 4.60246 8.15986 4.63758 8.12486C5.10426 7.6582 5.57016 7.18946 6.03969 6.72559C6.069 6.69834 6.09198 6.665 6.107 6.6279C6.12201 6.5908 6.1287 6.55085 6.12659 6.51089C6.12374 5.58617 6.12481 4.66103 6.12481 3.73667V3.50933H7.87578H7.8756Z" fill="white"/>
</svg>
