<svg width="15" height="14" viewBox="0 0 15 14" fill="none" xmlns="http://www.w3.org/2000/svg">
<path fill-rule="evenodd" clip-rule="evenodd" d="M12.9997 14L9.9997 12.0009L6.99972 14V11.0006C6.99972 11.0006 3.76169 11.1763 1.99974 11.0006C1.22612 10.9995 0.180853 10.052 0.0340427 9.31566C0.0135648 9.19423 0.00505808 9.07109 0.00864782 8.948C0.00758483 6.50494 0.024298 4.06158 8.55357e-05 1.61857C-0.00900889 0.689149 0.708211 -0.0047017 1.62368 2.3994e-05C5.57107 0.0196356 9.51858 0.00788132 13.466 0.00829482C14.2241 0.00870831 14.8275 0.496517 14.9729 1.22782C14.9944 1.36114 15.0031 1.49623 14.9986 1.63121C14.9997 4.06831 15.0004 6.56342 14.9997 9.00069C14.9994 10.3142 12.9997 11.0006 12.9997 11.0006V14H12.9997ZM1.99974 2.0007V9.00063H6.99972C7.01815 8.12278 7.38074 7.68045 7.9055 7.04703C8.43469 6.40824 9.08724 6.05635 9.85868 6.00047C10.2019 5.97324 10.5471 6.01493 10.874 6.1231C11.2009 6.23127 11.5028 6.40373 11.7621 6.63034C12.5535 7.29631 12.9453 8.20878 12.978 9.32103C13.2267 9.32103 12.7565 9.00063 12.9997 9.00063V2.0007H1.99974ZM10.0347 11.0061C10.8302 11.0171 11.5046 10.2568 11.5085 9.34549C11.5124 8.42664 10.8685 7.6785 10.0563 7.65972C9.26264 7.64241 8.58457 8.39722 8.574 9.3104C8.56278 10.2347 9.21829 10.9943 10.0347 11.0061ZM11.9972 2.99605V4.00564H2.98501V2.99611H11.9972V2.99605ZM5.99219 6.00573V7.00994H3.01441V6.00573H5.99219Z" fill="white"/>
</svg>
