<svg width="66" height="46" viewBox="0 0 66 46" fill="none" xmlns="http://www.w3.org/2000/svg">
<path d="M6.96326 15.7247C6.5585 15.7865 6.15553 15.7848 5.75436 15.7195C5.36443 15.6526 5.00268 15.5065 4.66912 15.2813C4.33384 15.0449 4.04189 14.7156 3.79327 14.2933C3.55418 13.8581 3.38395 13.3088 3.28259 12.6455C3.17779 11.9596 3.18488 11.366 3.30386 10.8645C3.42112 10.3519 3.59882 9.93352 3.83695 9.60948C4.08461 9.27249 4.37327 9.01552 4.70291 8.83858C5.03084 8.6504 5.35221 8.53226 5.66703 8.48415C6.18423 8.40512 6.65458 8.47132 7.07809 8.68275C7.5016 8.89418 7.80526 9.1872 7.98907 9.56182L9.15276 9.38401C8.97847 8.99642 8.7479 8.69223 8.46103 8.47143C8.17244 8.23939 7.85309 8.06957 7.50298 7.96199C7.16239 7.84144 6.80229 7.78141 6.42266 7.78189C6.05257 7.7694 5.69887 7.78893 5.36157 7.84047C4.65323 7.94871 4.04726 8.16212 3.54366 8.4807C3.03833 8.78803 2.63022 9.1668 2.31932 9.61702C2.00842 10.0672 1.79777 10.5712 1.68738 11.1288C1.58824 11.6847 1.58419 12.2607 1.67525 12.8566C1.77146 13.4862 1.96285 14.061 2.24941 14.581C2.53426 15.0898 2.89313 15.5182 3.32601 15.8662C3.76842 16.2014 4.27188 16.4466 4.8364 16.6019C5.3992 16.7461 6.01228 16.7674 6.67564 16.6661C7.41771 16.5527 8.04531 16.3302 8.55844 15.9987C9.08281 15.6654 9.5138 15.3234 9.8514 14.9727L9.26439 14.4065C8.92069 14.7927 8.56411 15.0946 8.19464 15.3121C7.8347 15.5167 7.42424 15.6542 6.96326 15.7247Z" fill="#503353"/>
<path d="M12.8168 11.3439L12.1519 6.99273L10.7184 7.21178L12.0069 15.6443L13.4404 15.4253L12.9869 12.457L13.765 11.3371L16.2763 13.7666C16.437 13.9146 16.6033 14.0618 16.7753 14.2081C16.9472 14.3544 17.1278 14.4821 17.3171 14.5913C17.5063 14.7004 17.7025 14.7798 17.9057 14.8293C18.1201 14.877 18.3398 14.8837 18.5646 14.8494C18.767 14.8185 18.9603 14.7659 19.1446 14.6917C19.3289 14.6176 19.4906 14.5468 19.6299 14.4795L19.5268 13.8049L19.0546 13.8771C18.9197 13.8977 18.7732 13.8798 18.615 13.8234C18.4568 13.7671 18.2895 13.6891 18.1132 13.5894C17.9464 13.4768 17.7788 13.3586 17.6103 13.2348C17.4513 13.098 17.3044 12.9651 17.1697 12.8361L14.5197 10.2898L17.3969 6.19126L16.3344 6.35361L12.8168 11.3439Z" fill="#503353"/>
<path d="M22.5938 13.0083L21.4574 5.57081L20.0238 5.78986L21.3124 14.2224L22.9989 13.9647L26.1707 5.92063L27.2995 13.3076L28.733 13.0885L27.4445 4.65595L25.758 4.91365L22.5938 13.0083Z" fill="#503353"/>
<path d="M38.7593 10.8661L34.3357 3.60293L33.3238 3.75756L31.3555 11.9974L30.1412 12.183L30.5149 14.6284L31.6954 14.448L31.4248 12.6772L38.8455 11.5433L39.1161 13.3141L40.2966 13.1337L39.923 10.6883L38.7593 10.8661ZM33.697 5.40916L33.7982 5.3937L37.2414 11.098L32.1481 11.8763L33.697 5.40916Z" fill="#503353"/>
<path d="M42.3472 6.83153L41.6823 2.48033L40.2488 2.69939L41.5373 11.1319L42.9709 10.9129L42.5173 7.94463L43.2954 6.82472L45.8067 9.25417C45.9674 9.40221 46.1337 9.54938 46.3057 9.6957C46.4776 9.84202 46.6582 9.96975 46.8475 10.0789C47.0367 10.188 47.233 10.2674 47.4361 10.3169C47.6505 10.3646 47.8702 10.3714 48.095 10.337C48.2974 10.3061 48.4907 10.2535 48.675 10.1793C48.8593 10.1052 49.0211 10.0344 49.1603 9.96711L49.0573 9.2925L48.585 9.36466C48.4501 9.38528 48.3036 9.3674 48.1454 9.31103C47.9872 9.25466 47.8199 9.17666 47.6436 9.07704C47.4768 8.96445 47.3092 8.84624 47.1407 8.72241C46.9817 8.58562 46.8349 8.45274 46.7001 8.32375L44.0501 5.77741L46.9274 1.67887L45.8649 1.84122L42.3472 6.83153Z" fill="#503353"/>
<path d="M52.1243 8.49593L50.9878 1.05842L49.5542 1.27747L50.8428 9.71002L52.5293 9.45232L55.7011 1.40824L56.8299 8.79516L58.2634 8.57611L56.9749 0.143555L55.2884 0.401262L52.1243 8.49593Z" fill="#503353"/>
<path d="M0.320312 36.6115L7.90961 35.4518L8.4465 38.9654L0.857202 40.1251L0.320312 36.6115Z" fill="#503353"/>
<path d="M23.3189 22.6843L23.5981 24.5114C23.6812 25.0548 23.6875 25.5045 23.6173 25.8604C23.5456 26.207 23.4707 26.5013 23.3926 26.7433L18.5834 42.8961C18.4467 43.3197 18.2172 43.7 17.8947 44.0369C17.5816 44.3724 17.1253 44.586 16.5256 44.6776L13.3494 45.1629L18.4177 29.3876C18.573 28.9612 18.7341 28.5722 18.9009 28.2207C19.0757 27.8584 19.2768 27.5113 19.5041 27.1793L10.4953 28.5559C10.3641 28.5759 10.2341 28.5718 10.1051 28.5436C9.98408 28.5046 9.87027 28.45 9.76369 28.38C9.66505 28.2992 9.57903 28.2069 9.50563 28.103C9.4308 27.9898 9.38408 27.8723 9.36547 27.7505L8.92737 24.8834L23.3189 22.6843Z" fill="#503353"/>
<path d="M41.4264 30.3878C41.6999 32.1774 41.7447 33.7574 41.561 35.1278C41.3773 36.4983 41.0093 37.6667 40.4571 38.6333C39.9142 39.5983 39.2065 40.3633 38.334 40.9281C37.4708 41.4914 36.4958 41.8562 35.4089 42.0222C34.3221 42.1883 33.2826 42.1314 32.2906 41.8515C31.308 41.5702 30.4135 41.0501 29.6072 40.2912C28.8009 39.5323 28.1054 38.5263 27.5208 37.2733C26.9456 36.0188 26.5213 34.4968 26.2478 32.7072C25.9744 30.9176 25.9248 29.3383 26.0991 27.9693C26.2829 26.5989 26.6462 25.4312 27.189 24.4661C27.7319 23.501 28.431 22.7422 29.2862 22.1896C30.1494 21.6262 31.1244 21.2615 32.2112 21.0954C33.2981 20.9294 34.3375 20.9863 35.3295 21.2662C36.3295 21.5352 37.2326 22.0492 38.0389 22.8082C38.8546 23.5656 39.5548 24.5709 40.1393 25.8239C40.7239 27.077 41.153 28.5983 41.4264 30.3878ZM36.9291 31.0751C36.7129 29.6603 36.447 28.5167 36.1316 27.6445C35.8147 26.7628 35.4669 26.0872 35.0884 25.6177C34.7192 25.1468 34.3329 24.8463 33.9295 24.7161C33.5246 24.5767 33.1301 24.5363 32.746 24.595C32.3618 24.6537 31.9974 24.81 31.6527 25.064C31.3159 25.3073 31.0416 25.7087 30.8299 26.2684C30.6276 26.8267 30.5069 27.5739 30.4677 28.5099C30.4365 29.4352 30.529 30.6052 30.7452 32.02C30.9628 33.4441 31.2247 34.5931 31.5307 35.4668C31.8462 36.3391 32.1846 37.0161 32.5458 37.4978C32.915 37.9687 33.2974 38.2747 33.6928 38.4156C34.0963 38.5457 34.49 38.5814 34.8742 38.5227C35.2583 38.464 35.6235 38.3123 35.9696 38.0677C36.3144 37.8137 36.5926 37.4068 36.8043 36.8471C37.0239 36.2766 37.154 35.528 37.1946 34.6013C37.2352 33.6746 37.1467 32.4992 36.9291 31.0751Z" fill="#503353"/>
<path d="M51.951 23.3862C52.0655 24.1358 52.0342 24.8405 51.857 25.5004C51.6798 26.1603 51.4006 26.7495 51.0196 27.268C50.6372 27.7771 50.1647 28.1992 49.6023 28.5345C49.0493 28.8683 48.4495 29.0846 47.803 29.1833C47.0909 29.2922 46.4164 29.2706 45.7796 29.1186C45.1521 28.9652 44.5845 28.7019 44.0768 28.3289C43.5771 27.945 43.1582 27.4625 42.8201 26.8813C42.482 26.3001 42.2557 25.6348 42.1411 24.8852C42.0223 24.1075 42.0367 23.3862 42.1844 22.7212C42.3307 22.0469 42.5849 21.4519 42.9472 20.9363C43.3188 20.4193 43.7812 19.9939 44.3343 19.6601C44.8952 19.3155 45.5318 19.0888 46.2439 18.98C46.9559 18.8711 47.6311 18.8974 48.2694 19.0588C48.9157 19.2093 49.4887 19.4765 49.9884 19.8604C50.4975 20.2428 50.9225 20.734 51.2635 21.3339C51.603 21.9245 51.8322 22.6086 51.951 23.3862ZM48.6061 23.8973C48.5331 23.4195 48.4308 23.0324 48.2992 22.7361C48.1756 22.429 48.0292 22.1925 47.86 22.0266C47.6908 21.8607 47.5021 21.7553 47.2939 21.7104C47.0951 21.664 46.8832 21.6581 46.6583 21.6924C46.4335 21.7268 46.2331 21.7958 46.0571 21.8994C45.8812 22.0029 45.742 22.1585 45.6394 22.3659C45.5369 22.5733 45.4725 22.842 45.4462 23.1721C45.4185 23.4927 45.4411 23.892 45.5142 24.3698C45.5829 24.8195 45.6776 25.1886 45.7984 25.477C45.9192 25.7653 46.0587 25.9885 46.2171 26.1465C46.3755 26.3045 46.5541 26.4066 46.7529 26.4529C46.9518 26.4993 47.1636 26.5052 47.3885 26.4709C47.6134 26.4365 47.8138 26.3675 47.9897 26.2639C48.175 26.1589 48.3244 26.0067 48.4377 25.8072C48.551 25.6077 48.6223 25.3523 48.6514 25.041C48.6899 24.7283 48.6748 24.3471 48.6061 23.8973ZM57.7286 18.088C57.8448 17.9072 57.9959 17.7355 58.182 17.5728C58.3666 17.4008 58.6417 17.2869 59.0071 17.231L62.1834 16.7457L49.7863 38.9624C49.6729 39.1619 49.5178 39.339 49.3209 39.4937C49.132 39.6376 48.8876 39.7325 48.5878 39.7783L45.3272 40.2766L57.7286 18.088ZM65.3649 32.2959C65.4795 33.0455 65.4488 33.7549 65.273 34.4242C65.0958 35.0841 64.8167 35.6733 64.4357 36.1917C64.0532 36.7008 63.5808 37.123 63.0184 37.4582C62.4653 37.792 61.8655 38.0083 61.2191 38.1071C60.507 38.2159 59.8325 38.1943 59.1956 38.0423C58.5681 37.8889 58.0005 37.6257 57.4929 37.2526C56.9932 36.8687 56.5742 36.3862 56.2361 35.805C55.8966 35.2145 55.6696 34.5445 55.555 33.7949C55.4362 33.0172 55.4506 32.2959 55.5983 31.6309C55.7446 30.9566 55.9988 30.3616 56.3611 29.846C56.7328 29.329 57.1951 28.9036 57.7482 28.5698C58.3092 28.2252 58.9457 27.9985 59.6578 27.8896C60.3699 27.7808 61.045 27.8071 61.6834 27.9685C62.3296 28.119 62.9026 28.3862 63.4023 28.7701C63.9114 29.1525 64.3364 29.6437 64.6774 30.2436C65.0169 30.8341 65.2461 31.5182 65.3649 32.2959ZM62.02 32.807C61.9484 32.3386 61.8468 31.9562 61.7153 31.6599C61.5916 31.3527 61.4452 31.1162 61.2761 30.9503C61.1069 30.7844 60.9182 30.679 60.71 30.6341C60.5111 30.5878 60.2993 30.5818 60.0744 30.6162C59.8495 30.6505 59.6491 30.7195 59.4732 30.8231C59.2973 30.9267 59.158 31.0822 59.0555 31.2896C58.9529 31.4971 58.8885 31.7658 58.8623 32.0958C58.8345 32.4165 58.8565 32.811 58.9281 33.2795C58.9968 33.7292 59.0915 34.0983 59.2123 34.3867C59.3331 34.675 59.4727 34.8982 59.631 35.0562C59.7894 35.2142 59.968 35.3163 60.1669 35.3626C60.3657 35.4089 60.5776 35.4149 60.8024 35.3806C61.0273 35.3462 61.2277 35.2772 61.4036 35.1736C61.5889 35.0686 61.7383 34.9164 61.8516 34.7169C61.9649 34.5174 62.0362 34.262 62.0653 33.9507C62.1038 33.638 62.0887 33.2568 62.02 32.807Z" fill="#503353"/>
</svg>
