<svg width="20" height="21" viewBox="0 0 20 21" fill="none" xmlns="http://www.w3.org/2000/svg">
<path d="M17.0492 3.4508C16.125 2.51843 15.0256 1.7778 13.8144 1.27142C12.6031 0.765043 11.3038 0.502895 9.99097 0.500024C8.67813 0.497153 7.37766 0.753617 6.16421 1.25469C4.95075 1.75577 3.84822 2.49159 2.9199 3.4199C1.99159 4.34822 1.25577 5.45075 0.754692 6.66421C0.253617 7.87766 -0.00284686 9.17813 2.38352e-05 10.491C0.00289453 11.8038 0.265043 13.1031 0.771421 14.3144C1.2778 15.5256 2.01843 16.625 2.9508 17.5492C3.87505 18.4816 4.97435 19.2222 6.1856 19.7286C7.39685 20.235 8.69619 20.4971 10.009 20.5C11.3219 20.5028 12.6223 20.2464 13.8358 19.7453C15.0492 19.2442 16.1518 18.5084 17.0801 17.5801C18.0084 16.6518 18.7442 15.5492 19.2453 14.3358C19.7464 13.1223 20.0028 11.8219 20 10.509C19.9971 9.19619 19.735 7.89685 19.2286 6.6856C18.7222 5.47435 17.9816 4.37505 17.0492 3.4508ZM10 3.25793C10.4236 3.25793 10.8378 3.38357 11.19 3.61895C11.5422 3.85434 11.8167 4.18889 11.9788 4.5803C12.1409 4.97171 12.1833 5.4024 12.1005 5.81789C12.0178 6.23337 11.8137 6.615 11.5141 6.91449C11.2145 7.21398 10.8328 7.41789 10.4172 7.50042C10.0017 7.58295 9.57105 7.5404 9.17972 7.37815C8.78838 7.2159 8.45395 6.94123 8.21872 6.58889C7.9835 6.23655 7.85805 5.82237 7.85824 5.39873C7.85875 4.83086 8.08456 4.28639 8.48611 3.88484C8.88766 3.48329 9.43213 3.25748 10 3.25697V3.25793ZM12.7261 16.8877H7.27386V15.718H8.44262V9.87705H7.27386V8.70829H11.5574V15.718H12.7261V16.8877Z" fill="#CDCDCD" fill-opacity="0.6"/>
</svg>
