<svg width="199" height="52" viewBox="0 0 199 52" fill="none" xmlns="http://www.w3.org/2000/svg">
<path d="M57.862 18.9908C57.7026 18.8287 57.6092 18.6801 57.4772 18.4739C57.4084 18.3692 57.3342 18.2566 57.2518 18.1354C57.4799 17.8715 57.6724 17.5662 57.818 17.2306L58.4008 15.9022L56.9659 15.696C56.724 15.6602 56.3337 15.5585 55.8774 15.4375C54.9977 15.2064 53.8681 14.9094 52.6366 14.7801C53.0572 14.5959 53.4145 14.2631 53.6645 13.812L53.9009 13.3857C53.9009 13.3857 53.8378 12.789 53.6069 12.602C53.6949 12.4177 53.7635 12.2142 53.8102 11.9913L54.0055 11.0397L53.0873 10.7263C52.9443 10.6767 52.8016 10.6409 52.6614 10.6189C52.6092 10.4457 52.5321 10.2614 52.4277 10.0661L51.8834 9.06772L50.902 9.64252C50.6575 9.78561 50.4513 9.95067 50.2837 10.1348C50.138 10.1074 49.9812 10.0936 49.8163 10.0936C49.8163 10.0936 49.2556 10.0303 48.6371 10.2559L47.8454 9.43355L46.9081 8.43248C46.0312 7.49458 44.8437 7.21685 43.6343 7.67885C43.1726 7.21685 42.4524 6.83451 41.3336 6.83451C40.9542 6.83451 40.6215 6.8813 40.4264 6.90599C40.4264 6.90599 38.8871 7.18657 38.0212 8.00895L36.9712 7.50835C36.2675 8.61677 35.0636 8.96869 35.0636 8.96869C34.981 8.64418 34.841 8.34163 34.6403 8.06392L34.7089 7.6734C34.7089 7.66235 34.9453 6.3395 35.6655 5.21731L36.919 3.26455L35.1432 3.46533C35.1489 3.28938 35.1405 3.08042 35.1158 2.83283L34.9563 1.31466L33.5655 1.94443C33.4115 2.01318 33.2823 2.08193 33.1615 2.14522L32.8864 1.55936L32.2488 1.88946C32.1855 1.73274 32.1032 1.55391 31.9905 1.34767L31.2564 0L30.2147 1.12492C30.1075 1.24046 30.0168 1.34767 29.9399 1.44942L29.3076 0.819653L28.6698 1.45215C28.5901 1.3504 28.5022 1.24319 28.3949 1.12765L27.3422 0L26.6055 1.35313C26.4928 1.55936 26.4131 1.73547 26.3499 1.89219L25.715 1.56223L25.44 2.14795C25.3191 2.0848 25.19 2.01591 25.0359 1.94443L23.6396 1.31739L23.4857 2.84102C23.461 3.08586 23.4526 3.29211 23.4582 3.4682L21.6797 3.26742L22.9359 5.22003C23.6589 6.3395 23.8897 7.66235 23.8897 7.6734L23.9556 8.06392C23.755 8.34436 23.6121 8.64691 23.5324 8.97156C23.5324 8.97156 22.3944 8.48473 21.6329 7.50835L20.5609 8.01986C19.3377 7.19475 18.5791 6.87298 17.2597 6.83451C16.1409 6.80423 15.4207 7.21685 14.9589 7.67885C13.7466 7.21958 12.5619 7.4973 11.6879 8.43521C11.6879 8.43521 11.1134 9.05954 10.7505 9.43628C10.3877 9.81589 9.85163 10.1294 9.85163 10.1294C9.85163 10.1294 9.09025 9.95885 8.30676 10.1377C8.13913 9.95339 7.9303 9.78834 7.68287 9.64252L6.69875 9.06772L6.15723 10.0717C6.05274 10.2641 5.97855 10.4457 5.92918 10.6189C5.78895 10.6409 5.64601 10.6767 5.50306 10.7263L4.59041 11.0451L4.78014 11.9913C4.82678 12.2196 4.89281 12.4231 4.98352 12.6074C4.93127 12.7091 4.88463 12.8164 4.84616 12.9292L4.69217 13.3885L4.92582 13.8147C5.17325 14.2631 5.52774 14.5986 5.95114 14.7829C4.71684 14.9122 3.58992 15.2091 2.70754 15.4402C2.25402 15.5585 1.86364 15.6629 1.62179 15.6987L0.181413 15.9078L0.508498 16.6503L0.769709 17.2417C0.918111 17.5717 1.1133 17.8769 1.33863 18.1411C1.25337 18.262 0.890553 18.8314 0.728374 18.9935L0 19.7334L0.698235 20.5035C0.78607 20.597 1.56955 21.4193 2.83671 21.4221C3.18303 21.4221 3.52662 21.3617 3.86749 21.2405C4.20562 21.7687 4.60691 22.3049 4.97261 22.569C4.29906 23.3611 3.53222 24.0487 2.44088 24.5685L1.52837 25.0029L1.92132 26.0454C2.17709 26.6751 2.67453 27.3654 3.63655 27.6296C3.43046 28.2455 3.33157 28.8287 3.2436 29.3485C3.03735 30.5834 2.94937 31.0949 1.86364 31.4772L0.887827 31.8183L1.16827 32.8138C1.3936 33.6251 1.73174 34.1615 2.09729 34.5163L1.44857 35.2313C1.44857 35.2313 2.98798 36.3866 4.49697 36.5268C4.51893 36.5295 5.80546 36.612 6.38271 35.8749C6.61363 36.711 6.97918 37.4812 7.31172 38.1797C7.99345 39.6153 8.35628 40.4651 7.90002 41.2408L6.86924 42.99L8.89505 42.9048C9.78016 42.869 10.6021 42.814 11.314 42.6379C11.314 42.6764 11.3113 42.7123 11.3085 42.748L11.1436 44.2496L12.9193 43.8755C13.1063 43.8205 13.2821 43.7463 13.4416 43.661C14.541 44.9482 16.4103 45.952 18.9281 45.952H19.0738L16.1794 47.1402L18.2877 48.2376C19.6758 48.9609 21.2178 49.566 22.9772 50.0802L22.7324 50.9246L23.7908 51.2353C24.401 51.4141 26.6083 52 29.2966 52C31.9849 52 34.1895 51.4141 34.8025 51.2353L35.8579 50.9246L35.6133 50.0829C37.3752 49.5688 38.9174 48.9636 40.3055 48.2403L42.4139 47.1429L39.5166 45.9549H39.6622C42.1802 45.9549 44.0466 44.951 45.1461 43.6639C45.3055 43.7491 45.4815 43.8232 45.6683 43.8784L47.444 44.2524L47.2819 42.7534C47.2792 42.7177 47.2764 42.6792 47.2764 42.6406C47.9857 42.8168 48.8102 42.869 49.6926 42.9075L51.7184 42.9927L50.6933 41.2463C50.2341 40.4707 50.5997 39.6208 51.2786 38.1851C51.6113 37.4866 51.9769 36.7164 52.2078 35.8804C52.598 36.1774 53.0188 36.3562 53.4365 36.4498C53.4365 36.4498 53.7608 36.546 54.0714 36.5543C54.9676 36.5817 55.4155 36.326 56.0314 35.9382L57.1502 35.234L56.4958 34.519C56.8616 34.1669 57.1995 33.6308 57.425 32.8222L57.7082 31.8237L56.7295 31.4826C55.641 31.1004 55.5557 30.5888 55.3497 29.354C55.2617 28.8341 55.1655 28.2485 54.9565 27.635C55.9186 27.3681 56.4134 26.6779 56.6691 26.0508L57.0594 25.0058L56.1468 24.5712C55.0554 24.0514 54.2886 23.3638 53.6123 22.5717C53.9808 22.3078 54.382 21.7714 54.7228 21.2434C55.0611 21.3644 55.4046 21.4221 55.7536 21.4248C57.0208 21.4248 57.807 20.6026 57.8922 20.509L58.5906 19.7389L57.862 18.9908Z" fill="white"/>
<path fill-rule="evenodd" clip-rule="evenodd" d="M20.3627 32.5443V24.156C20.3627 23.3749 20.1372 22.5937 19.8679 21.876H26.3743C26.9708 22.6954 28.0538 23.2455 29.2963 23.2455C30.5332 23.2455 31.6162 22.6954 32.2155 21.876H38.7219C38.4471 22.5966 38.2244 23.3749 38.2244 24.156V32.5443H20.3627ZM29.2936 44.0076C28.3838 43.1028 27.735 43.0038 25.2831 43.0038C22.3528 43.0038 20.3627 41.2849 20.3627 38.5372V33.0366H38.2216V38.5372C38.2216 41.2849 36.2343 43.0038 33.2985 43.0038C30.8493 43.0011 30.2005 43.1028 29.2936 44.0076Z" fill="#FFDD2D"/>
<path d="M21.3986 45.0442V46.7191L19.9446 47.305C21.1733 47.8633 22.6988 48.4189 24.4911 48.8286L25.3156 46.1416C23.5565 45.7812 22.3305 45.4045 21.3986 45.0442Z" fill="white"/>
<path d="M29.2945 47.3134C27.5765 47.3134 26.1307 47.1345 25.5534 47.0026L24.6819 49.8216C26.0508 50.1571 27.6534 50.4047 29.2945 50.4047C30.9301 50.4047 32.5326 50.1598 33.907 49.8216L33.0329 47.0026C32.4556 47.1373 31.0153 47.3134 29.2945 47.3134Z" fill="white"/>
<path d="M37.1882 45.0442C36.2537 45.4045 35.0305 45.7785 33.2712 46.1443L34.0986 48.8313C35.8936 48.4216 37.4136 47.8661 38.6423 47.3077L37.1909 46.7218V45.0442H37.1882Z" fill="white"/>
<path d="M18.3538 18.0227C20.6298 16.7932 26.1933 14.0869 22.422 11.1689C21.908 10.7729 21.3417 10.4154 20.8662 9.9725C20.2778 10.4263 21.086 11.554 21.2895 11.9664C21.2895 11.9664 20.0333 12.0931 19.7337 12.0931C17.7931 12.0847 15.7589 10.9351 16.7897 8.73218C16.0173 8.89163 15.9238 9.63422 15.6874 10.2696C15.1926 9.93403 14.3324 9.21341 13.6698 9.31516C14.2087 11.0397 16.4764 12.5937 18.2355 12.9455C16.4571 13.9137 13.1586 14.6342 11.424 12.5496C10.2064 14.9066 11.9024 15.8912 13.5654 17.126C7.2349 20.0166 8.16951 23.2593 4.01613 25.8115C4.55492 26.0646 6.95733 25.5559 7.17175 25.5255C6.27015 26.6943 5.84949 27.1894 5.5857 27.7587C5.3328 28.2924 5.22 28.8946 4.96998 30.1927C4.77479 31.2187 4.41742 32.2418 3.16949 32.9211C3.65876 33.8066 4.74451 33.1135 5.19804 32.9953C5.13762 33.0888 4.98361 34.1559 4.57687 34.6704C6.70989 34.5327 5.72304 30.0333 7.85621 31.1168C8.45813 31.4194 8.63955 32.129 8.36198 32.7092C6.96006 35.6027 10.146 38.1522 9.97273 40.6879C10.7561 40.6824 11.567 40.6603 12.0783 39.6016C12.345 40.1296 12.7572 40.8722 12.9881 41.5872L13.626 40.5009C14.0189 42.2996 15.6957 43.9608 17.9607 44.1094C16.8804 42.3986 18.1752 40.0636 15.55 37.5801C15.8771 37.316 16.633 36.8073 16.9024 36.4608C13.6809 36.8402 10.319 34.2907 11.8446 33.0806C12.8425 32.2913 13.2795 33.9305 14.8189 33.6553L14.2168 33.1356C14.4285 32.9265 14.6703 32.6543 14.9205 32.448C14.2663 32.3682 13.5516 31.9501 13.5516 31.9501L13.942 31.3039C10.1679 31.2984 10.0716 28.4107 11.6055 28.2951C12.3256 28.2429 13.2575 29.5711 15.5803 29.2935C15.2833 28.9359 15.1652 28.3941 15.025 27.9953C15.5857 27.943 16.2455 27.9485 16.776 27.69C15.6407 27.5442 15.3548 27.162 14.4093 26.4468L15.5061 26.0454C13.9146 25.2504 14.0108 23.8672 13.9613 22.4259C14.794 22.9044 15.7727 23.647 16.8172 23.3033C17.0646 23.2207 17.224 23.1051 17.2294 22.8467C15.7398 22.25 14.7832 19.9534 18.3538 18.0227ZM15.6352 18.2482C13.6423 20.3797 14.5054 21.6559 14.9069 22.0491C14.1646 21.8895 13.0569 20.9435 13.3097 20.0276C13.0733 20.311 12.8316 20.619 12.5841 20.9352C12.0893 21.5953 11.6468 22.2416 11.2537 22.8687C10.6489 24.6674 11.7567 26.5239 13.6423 27.3463C11.5477 27.0381 10.6077 25.1734 10.6133 23.9853C9.61263 25.8776 9.13441 27.6048 9.17833 29.0542C9.19756 29.5932 9.24435 30.0965 9.31583 30.5723C9.79677 31.4854 10.5692 31.821 11.9462 31.9888C10.6956 32.0684 10.0331 32.0107 9.48891 31.4387C10.341 35.1048 14.3268 38.2786 15.9485 40.996C14.3241 38.8837 10.9623 35.7375 9.78586 33.4629C9.69516 34.2853 9.91503 36.392 10.9374 37.6874C9.43122 36.205 9.31296 33.9608 9.41199 32.6461C9.02993 31.7 8.78795 30.6438 8.75494 29.442C8.72481 28.3362 8.80173 27.3764 8.96937 26.5156C8.01839 27.8688 6.64387 28.3914 5.96774 30.4513C6.09964 27.7945 8.08153 27.7533 9.56584 24.5272C10.1404 23.1162 10.9761 21.8979 11.8997 20.5172C10.7259 20.9023 9.84628 21.1772 8.48842 22.6651C9.45318 20.3824 15.0277 17.8164 17.5814 15.3329C16.8144 15.4953 13.6836 15.5749 12.3835 14.7058C14.7391 15.3439 19.9811 14.6149 21.9603 13.2619C20.5941 15.2284 17.6199 15.3411 13.9997 19.252C14.4615 18.8835 15.0772 18.5122 15.6352 18.2482Z" fill="white"/>
<path d="M53.6155 30.1924C53.3653 28.8944 53.2554 28.2922 53.0025 27.7585C52.7414 27.1891 52.3181 26.6941 51.4137 25.5253C51.6282 25.5555 54.036 26.0644 54.5721 25.8113C50.4187 23.259 51.3534 20.0164 45.02 17.1258C46.6831 15.8909 48.3791 14.9064 47.1613 12.5466C45.4269 14.634 42.1283 13.9135 40.3498 12.9426C42.1118 12.5906 44.3769 11.0393 44.9157 9.31222C44.2504 9.21046 43.39 9.93108 42.8953 10.2638C42.6587 9.62854 42.5681 8.88596 41.7958 8.72363C42.8266 10.9294 40.7897 12.079 38.8463 12.0872C38.5494 12.0872 37.2959 11.9608 37.2959 11.9608C37.4966 11.5483 38.3047 10.4206 37.7138 9.96682C37.2382 10.4123 36.6774 10.7671 36.1607 11.1633C32.3866 14.0813 37.9557 16.7903 40.2316 18.017C43.7969 19.9476 42.8485 22.2441 41.3558 22.8327C41.3615 23.0912 41.5208 23.2067 41.771 23.2892C42.8101 23.6359 43.7941 22.8933 44.6214 22.4118C44.5748 23.8531 44.6736 25.2392 43.0821 26.0314L44.1762 26.4328C43.2305 27.148 42.9473 27.5302 41.8122 27.676C42.34 27.9345 43.0052 27.929 43.5632 27.9813C43.4203 28.3801 43.2966 28.9219 43.0052 29.2794C45.3307 29.5544 46.2652 28.2288 46.9799 28.2811C48.5083 28.3966 48.4176 31.2844 44.6407 31.2899L45.031 31.9362C45.031 31.9362 44.3164 32.3542 43.6594 32.4341C43.9096 32.6375 44.1541 32.9125 44.3659 33.1217L43.7639 33.6413C45.3005 33.9165 45.7402 32.2773 46.738 33.0665C48.2636 34.2767 44.9046 36.8262 41.6803 36.4467C41.9523 36.7932 42.7083 37.3049 43.0354 37.5688C40.4076 40.0496 41.6995 42.3874 40.6248 44.1008C42.8842 43.9495 44.561 42.2884 44.9595 40.4896L45.5973 41.5761C45.8254 40.8609 46.2433 40.1184 46.5045 39.5904C47.013 40.6492 47.8293 40.6712 48.6155 40.6766C48.4368 38.1409 51.6199 35.5913 50.2236 32.6981C49.9431 32.1205 50.1245 31.4109 50.7265 31.1056C52.865 30.022 51.8727 34.5216 54.0086 34.659C53.599 34.1447 53.4479 33.0776 53.3901 32.9842C53.841 33.1024 54.924 33.7955 55.4133 32.9071C54.1735 32.2416 53.8162 31.2184 53.6155 30.1924ZM49.6215 26.5126C49.7892 27.3762 49.8745 28.3333 49.8358 29.439C49.8002 30.6408 49.561 31.6969 49.179 32.6429C49.2751 33.9577 49.1597 36.2019 47.6533 37.6843C48.6732 36.3862 48.8958 34.2821 48.8051 33.4599C47.6232 35.7343 44.2642 38.8808 42.6369 40.993C44.2613 38.2756 48.2471 35.0991 49.1021 31.4357C48.5522 32.0051 47.8954 32.0654 46.6418 31.9857C48.0163 31.8179 48.7886 31.4825 49.2697 30.5692C49.3412 30.0962 49.388 29.5901 49.4072 29.0513C49.4538 27.6018 48.9728 25.8745 47.9723 23.9823C47.9805 25.1705 47.0404 27.0352 44.9431 27.3432C46.8232 26.5181 47.9338 24.6616 47.3318 22.8658C46.9415 22.2386 46.5018 21.5895 46.0014 20.9323C45.7539 20.616 45.5121 20.308 45.2728 20.0247C45.5258 20.9405 44.4181 21.8866 43.6759 22.0462C44.08 21.6529 44.9404 20.3768 42.9503 18.2451C43.5083 18.5092 44.124 18.8805 44.5884 19.2435C40.9684 15.3327 37.9968 15.2226 36.6252 13.2535C38.6072 14.6066 43.8491 15.3381 46.202 14.6973C44.9046 15.5665 41.771 15.4866 41.0041 15.3243C43.5577 17.8079 49.1377 20.3739 50.0998 22.6568C48.742 21.1688 47.8596 20.8938 46.6913 20.5086C47.6176 21.8921 48.4478 23.1077 49.0222 24.5187C50.5094 27.7448 52.494 27.7832 52.6232 30.4428C51.947 28.3883 50.5753 27.8658 49.6215 26.5126Z" fill="white"/>
<path d="M32.2135 21.873C31.617 22.6927 30.5313 23.2428 29.297 23.2428C29.0084 23.2428 28.7308 23.2098 28.4669 23.1603C28.541 23.4986 28.7142 23.8477 29.0743 24.1476C28.9287 25.1294 29.352 26.0481 30.4049 26.2873C30.5176 26.7879 30.8253 27.1647 31.3476 27.3436L30.6136 28.1906C30.3307 28.5151 29.9622 28.6196 29.6654 28.581L26.3889 28.2098C26.5318 27.8467 26.1525 27.4259 25.1133 27.6047L26.3999 24.0019L25.6163 22.3325L24.1294 23.603L24.0194 27.382L23.3788 27.0711C22.5542 26.7136 22.3097 28.218 23.0957 28.2235L23.4119 28.2264C23.3899 28.3803 23.4395 28.5508 23.563 28.6057C23.4146 28.6663 23.3707 28.9441 23.5549 29.0431C23.368 29.134 23.3404 29.42 23.4915 29.5437C23.3293 29.8215 23.2992 30.4238 23.8737 30.575C24.3465 30.6987 24.6433 30.1927 24.7396 29.8985L29.8385 31.4771C30.556 31.6835 31.0728 31.5679 31.672 31.0426L33.0024 29.8792C32.8347 30.6411 33.1069 31.3258 33.6868 31.5541C33.6868 31.5541 33.5962 32.2527 33.6319 32.5414L35.416 32.5443H38.225V24.1558C38.225 23.3747 38.4478 22.5937 38.7226 21.873H35.416H32.2135Z" fill="white"/>
<path d="M24.5774 35.9876L24.6764 36.1113C24.8138 36.2818 24.8962 36.2407 25.053 36.1498L25.2837 36.0261C25.4296 35.916 26.3779 36.2791 26.4301 35.4897C26.5345 36.0783 25.8336 37.3187 26.2569 38.0117L26.826 38.9441L24.9677 38.9715C24.7644 38.9715 24.6571 39.0955 24.6022 39.2054L24.1157 40.2148C23.9893 40.4816 23.9974 40.7565 24.1569 40.9408L24.4866 41.3122C24.4866 41.3122 24.756 41.0839 24.844 40.7842L24.6983 40.6328C24.5774 40.5173 24.5774 40.4073 24.6434 40.2643L24.943 39.6427C25.0584 39.3979 25.1767 39.3457 25.4405 39.4089L26.9442 39.7334C27.0541 39.761 27.2328 39.8132 27.3399 39.6289C27.5242 39.3016 27.8485 39.2797 28.1783 39.332C29.003 39.4557 30.9079 39.6537 31.5868 38.8589C32.3839 39.9177 33.9426 39.9177 33.8409 40.4732L33.511 42.294H34.0058L34.3081 40.4321C34.3412 40.2148 34.4758 39.9177 34.2421 39.7499C34.1459 39.6757 34.102 39.6372 33.8847 39.2632C33.6018 38.7681 33.6153 38.0255 33.3433 37.3847C33.6018 37.0794 33.882 36.9749 34.1268 37.0326C34.6764 37.1673 34.825 38.1163 35.6056 38.8891C35.5177 38.5453 35.4792 38.1686 35.295 37.8412C35.295 37.8412 35.8365 38.2621 35.9766 38.7543C36.0645 39.0624 36.1553 39.2879 36.433 39.431C36.6171 39.4968 36.837 39.4089 37.0569 39.145C37.0569 39.145 36.5429 38.4133 36.1664 37.9348C35.6495 37.2774 34.9596 36.6173 34.0195 36.6944C33.7226 36.7192 33.4368 36.8539 33.1646 37.0162C32.0953 36.4166 31.2653 37.052 30.9354 37.052L28.9342 36.9337C28.5411 36.9089 28.2306 36.4523 28.2306 36.4523C28.1811 34.7582 26.8204 34.0844 26.3504 34.0844C26.3504 34.0844 26.3944 33.7791 26.2706 33.6718L25.8528 34.1971L24.6929 33.7735L25.6027 34.5189L24.6159 35.6658C24.5142 35.7785 24.528 35.927 24.5774 35.9876Z" fill="white"/>
<path d="M23.2665 38.367C22.9861 38.5843 22.9999 38.8868 23.1676 39.2251L23.3353 39.5387L23.7723 39.2058L23.6734 38.9913C23.6019 38.84 23.6046 38.6861 23.7284 38.5899L24.3551 38.1169C24.531 37.9875 24.5859 37.9738 24.7729 38.0013L26.0951 38.2791C26.0951 38.2791 25.8945 37.9875 25.8284 37.6905L24.5832 37.5255C24.4073 37.5034 24.3 37.5778 24.1462 37.696L23.2665 38.367Z" fill="white"/>
<path d="M31.7209 42.2943H32.2212L33.0239 40.3169C33.0513 40.2481 33.0898 40.2178 33.12 40.16C32.7599 40.017 32.5482 39.918 32.2487 39.7448C32.4493 40.0143 32.606 40.1299 32.5235 40.3801L31.7209 42.2943Z" fill="white"/>
<path d="M32.1473 15.5474L33.0738 10.22L29.5635 11.4136V16.906L32.1473 15.5474ZM30.1572 11.9527L32.4855 11.0946C32.4855 11.0946 32.0319 11.4631 31.4905 11.8345C31.0094 12.1672 30.1572 12.522 30.1572 12.522V11.9527ZM30.1572 13.2426L32.2876 12.4807C32.2876 12.4807 32.0319 12.7502 31.4932 13.1216C31.0122 13.4515 30.16 13.8065 30.16 13.8065V13.2426H30.1572ZM30.1572 14.6121L32.0319 13.8917C32.0319 13.8917 32.0319 14.1199 31.4905 14.4884C31.0094 14.8213 30.1572 15.176 30.1572 15.176V14.6121Z" fill="white"/>
<path d="M25.9017 20.2584L25.9786 20.3821H26.7015L26.7099 20.5086C26.7181 20.6297 26.7456 20.7534 26.7868 20.88C26.8994 21.2238 27.1221 21.5841 27.4795 21.8756C27.8945 22.2111 28.4939 22.4531 29.291 22.4531C31.02 22.4531 31.8007 21.3338 31.8748 20.5086L31.8803 20.3821H32.606L32.6829 20.2584C33.3647 19.1913 34.1975 18.0059 35.1651 17.8353L32.5263 16.3035L29.291 18.0637L26.0528 16.3035L23.4167 17.8353C24.3844 18.0031 25.2172 19.1913 25.9017 20.2584Z" fill="white"/>
<path d="M29.0189 16.906V11.4136L25.5141 10.22L26.4349 15.5474L29.0189 16.906ZM28.4278 15.1815C28.4278 15.1815 27.5758 14.824 27.0947 14.4939C26.5531 14.1253 26.5531 13.8944 26.5531 13.8944L28.4305 14.6148V15.1815H28.4278ZM28.4278 11.9527V12.522C28.4278 12.522 27.5758 12.1672 27.0947 11.8345C26.5504 11.4631 26.094 11.0946 26.094 11.0946L28.4278 11.9527ZM28.4278 13.2426V13.8092C28.4278 13.8092 27.5758 13.4544 27.0947 13.1243C26.5504 12.753 26.2976 12.4835 26.2976 12.4835L28.4278 13.2426Z" fill="white"/>
<path d="M29.294 7.87134C27.2902 7.87134 25.7866 8.52866 25.4595 9.29866L29.294 10.8141L33.1231 9.29866C32.7987 8.52866 31.2979 7.87134 29.294 7.87134Z" fill="white"/>
<path d="M29.294 5.67122C30.7702 5.67122 32.249 6.11957 33.2441 6.69984C33.4063 6.16349 33.5795 5.7813 33.8159 5.34398L32.9088 5.48421L32.1748 3.91652L30.8032 4.64532L29.294 3.15198L27.7824 4.64532L26.4135 3.91652L25.674 5.48421L24.7668 5.34398C25.0032 5.7813 25.1737 6.16349 25.3413 6.69984C26.3392 6.11957 27.8125 5.67122 29.294 5.67122Z" fill="white"/>
<path d="M54.3081 17.7451C54.8029 17.6819 55.2015 17.5169 55.688 17.1538C54.6407 16.8762 52.4472 16.0813 50.5753 16.4388C49.9567 16.5214 49.6132 16.7716 49.833 16.9146C50.8391 17.5829 52.0816 19.1314 52.9859 20.9383C53.7803 19.951 53.4478 18.6555 53.2802 18.2842C54.8634 19.2386 55.2784 19.7033 56.0123 19.522C55.6193 18.9195 55.0668 18.3778 54.3081 17.7451Z" fill="white"/>
<path d="M5.60182 20.9355C6.50616 19.1285 7.74862 17.5801 8.75743 16.9118C8.98276 16.7687 8.63373 16.5184 8.02074 16.4359C6.14606 16.0811 3.94701 16.8732 2.89973 17.1511C3.39172 17.514 3.7821 17.6791 4.28242 17.7424C3.52104 18.3776 2.96848 18.9167 2.57538 19.519C3.3148 19.7006 3.72714 19.2358 5.30774 18.2814C5.14557 18.6555 4.81015 19.9482 5.60182 20.9355Z" fill="white"/>
<path fill-rule="evenodd" clip-rule="evenodd" d="M16.5789 37.7068C17.3072 37.1293 17.9121 36.8405 17.8818 35.4406C16.7878 36.0015 13.6844 35.9714 12.387 34.1837C12.0213 33.675 12.4118 33.4191 12.7662 33.8207C13.654 34.8273 15.298 34.3708 15.8972 34.082C15.8009 33.7354 15.5344 33.2843 15.3116 33.0918C15.5371 32.8718 16.172 32.5417 16.3011 31.9752C15.963 31.791 14.6464 31.6589 14.6464 31.6589C14.858 31.4554 15.1221 31.1721 14.9626 30.4158C13.6184 30.8283 11.9554 30.2674 11.5788 29.7695C11.2077 29.2799 11.587 28.8207 11.9004 29.1451C12.571 29.8493 15.8752 30.6551 17.1039 29.4311C16.6475 29.3047 16.1446 28.8977 16.0539 28.6446C17.1919 28.5292 18.0989 27.858 18.1732 27.0219C17.5436 27.0219 16.3562 26.9752 15.9494 26.6726C16.4937 26.4719 16.84 26.2739 17.0132 25.6633C14.9323 25.5367 14.7674 23.9911 14.7564 23.7354C16.1116 24.5164 18.4975 24.1698 17.879 22.2446C16.752 22.1842 15.6167 20.3607 18.7147 18.6859C21.5321 17.1593 24.7346 15.5147 24.4514 12.8055C24.2672 11.0729 21.4168 9.89023 21.054 9.01288C19.8637 9.57951 19.6245 10.2368 20.1605 11.3397C20.1605 11.3397 17.5079 11.6037 17.2991 9.97003C17.2084 9.23849 17.6977 8.55361 18.2227 8.02832C17.9257 8.02832 15.9273 7.49198 15.3254 9.12024C14.2066 8.3557 13.2473 8.3831 12.4941 9.19172C13.6981 9.90674 14.443 12.3601 16.4332 13.0834C15.0175 13.8507 12.7278 13.529 11.3919 11.1692C10.1275 13.0751 9.39908 14.9619 12.1121 16.9778C7.17793 19.2247 7.21367 23.5208 2.92007 25.567C3.35437 26.7358 4.27248 26.7358 5.44347 26.5544C3.58802 28.9665 5.16863 31.4911 2.23016 32.5225C2.50501 33.5072 3.05756 34.2937 4.14058 34.005C3.83273 34.4863 3.62935 34.4752 3.151 35.0033C4.75629 36.0154 6.66126 35.2838 7.09283 32.0357C7.16975 31.4555 7.96688 31.8185 7.69203 32.3878C5.86127 36.175 10.4903 39.0243 8.85197 41.802C10.2951 41.7415 11.3973 41.6288 11.9966 41.142C12.2908 41.7251 12.4694 42.3027 12.4034 42.8718C13.2005 42.7097 13.4918 42.2394 13.5469 41.6948C14.0692 43.2212 15.9383 44.8522 18.9291 44.8522C17.343 42.5859 18.8191 40.2893 16.5789 37.7068ZM13.6266 40.4985L12.989 41.5847C12.7608 40.8697 12.3457 40.1271 12.0791 39.5991C11.5651 40.6579 10.7542 40.68 9.97345 40.6854C10.1467 38.1497 6.96079 35.6002 8.36271 32.7068C8.64315 32.1293 8.45887 31.4197 7.85693 31.1144C5.72118 30.0308 6.71063 34.5302 4.57761 34.6677C4.98449 34.1535 5.13834 33.0864 5.19891 32.9928C4.74524 33.1111 3.65949 33.8041 3.17023 32.9186C4.41815 32.2393 4.77552 31.2161 4.97072 30.1902C5.21814 28.8921 5.33354 28.2898 5.58369 27.7563C5.84763 27.1869 6.26815 26.6919 7.16975 25.5231C6.95533 25.5532 4.55565 26.0622 4.01413 25.8091C8.16751 23.2567 7.2329 20.0142 13.5633 17.1236C11.9031 15.8887 10.2071 14.9041 11.4221 12.5471C13.1567 14.6317 16.4525 13.9113 18.2336 12.9431C16.4744 12.591 14.2066 11.04 13.6706 9.3127C14.3331 9.21095 15.1934 9.93157 15.6855 10.2671C15.9246 9.62903 16.0182 8.88916 16.7905 8.72972C15.7597 10.9327 17.7939 12.0822 19.7346 12.0905C20.0368 12.0905 21.2903 11.964 21.2903 11.964C21.0897 11.5515 20.2787 10.4238 20.867 9.97003C21.3426 10.4157 21.9087 10.7705 22.4229 11.1665C26.1969 14.0872 20.6306 16.7935 18.3546 18.0229C14.7838 19.9537 15.7404 22.253 17.2303 22.8388C17.2248 23.0973 17.0654 23.2128 16.818 23.2954C15.7735 23.6418 14.7949 22.8965 13.9621 22.418C14.0114 23.8591 13.9125 25.2452 15.5069 26.0373L14.41 26.4361C15.3529 27.1539 15.6416 27.5336 16.7768 27.6821C16.2462 27.9406 15.5893 27.935 15.0257 27.9874C15.1686 28.386 15.2842 28.9278 15.5809 29.2855C13.2583 29.5605 12.3265 28.2348 11.6063 28.287C10.0725 28.4025 10.1686 31.2903 13.9427 31.296L13.5525 31.9422C13.5525 31.9422 14.2671 32.3604 14.9241 32.44C14.674 32.6434 14.4321 32.9186 14.2204 33.1276L14.8223 33.6475C13.2804 33.9224 12.8461 32.2832 11.8454 33.0726C10.3199 34.2827 13.6816 36.8324 16.9033 36.4526C16.6338 36.7993 15.8752 37.3108 15.5508 37.5749C18.1759 40.0557 16.8812 42.3933 17.9615 44.1068C15.6965 43.9583 14.0198 42.2943 13.6266 40.4985Z" fill="black"/>
<path fill-rule="evenodd" clip-rule="evenodd" d="M9.48377 31.4387C10.0309 32.008 10.6905 32.0684 11.9413 31.9886C10.5641 31.821 9.79162 31.4855 9.31068 30.5723C9.24193 30.0994 9.19515 29.5932 9.17591 29.0542C9.13199 27.6048 9.61021 25.8775 10.6108 23.9852C10.6054 25.1707 11.5427 27.0354 13.64 27.3462C11.7543 26.5211 10.6466 24.6647 11.2512 22.8686C11.6443 22.2416 12.087 21.5926 12.5817 20.9353C12.8292 20.619 13.071 20.311 13.3074 20.0276C13.0545 20.9435 14.1623 21.8895 14.9044 22.0492C14.5031 21.6557 13.64 20.3824 15.6328 18.251C15.0776 18.5149 14.4619 18.8862 13.9946 19.2493C17.612 15.3384 20.5889 15.2283 21.9551 13.2592C19.9759 14.6122 14.7341 15.3438 12.3783 14.703C13.6785 15.5722 16.8094 15.4923 17.5762 15.3302C15.0254 17.8137 9.4509 20.3797 8.48328 22.6624C9.84114 21.1718 10.7208 20.8994 11.8973 20.5172C10.9709 21.9006 10.1381 23.1163 9.56357 24.527C8.07926 27.7505 6.09464 27.7917 5.96533 30.4485C6.6416 28.3886 8.01597 27.866 8.96709 26.5129C8.79931 27.3764 8.71965 28.3335 8.74994 29.4391C8.78295 30.6411 9.02478 31.6972 9.40684 32.6432C9.31068 33.9579 9.42607 36.2021 10.9325 37.6845C9.90989 36.3892 9.69001 34.2824 9.78071 33.4602C10.9599 35.7345 14.3218 38.881 15.9462 40.9932C14.3218 38.2786 10.3387 35.1048 9.48377 31.4387Z" fill="black"/>
<path fill-rule="evenodd" clip-rule="evenodd" d="M46.694 20.5172C47.8623 20.9023 48.7446 21.1745 50.1025 22.6652C49.1405 20.3825 43.5576 17.8164 41.0068 15.333C41.7736 15.4925 44.9073 15.5749 46.2048 14.7058C43.8517 15.3467 38.6098 14.6151 36.628 13.2618C37.9969 15.2311 40.9711 15.3412 44.5911 19.252C44.1267 18.8891 43.5109 18.5178 42.9529 18.2537C44.943 20.3852 44.0826 21.6614 43.6786 22.0546C44.4207 21.8951 45.5284 20.9491 45.2756 20.0332C45.5148 20.3164 45.7567 20.6246 46.0041 20.9407C46.5015 21.6008 46.9414 22.2472 47.3346 22.8743C47.9392 24.6729 46.8287 26.5293 44.9484 27.3517C47.0459 27.0437 47.986 25.1762 47.9749 23.9908C48.9783 25.8831 49.4565 27.6102 49.4126 29.0597C49.3933 29.5987 49.3465 30.102 49.275 30.5778C48.7912 31.4909 48.0188 31.8265 46.6445 31.9942C47.898 32.0713 48.5549 32.0135 49.1047 31.4443C48.2498 35.1104 44.2668 38.2842 42.6395 41.0016C44.2668 38.8893 47.6232 35.7428 48.8078 33.4685C48.8985 34.2907 48.6786 36.3975 47.656 37.693C49.1624 36.2105 49.2779 33.9662 49.1817 32.6516C49.5609 31.7055 49.8001 30.6494 49.8386 29.4474C49.8743 28.3418 49.7892 27.382 49.6241 26.5212C50.578 27.8743 51.9496 28.3969 52.6286 30.4568C52.4995 27.7974 50.5148 27.756 49.0276 24.5326C48.4504 23.1136 47.6202 21.8978 46.694 20.5172Z" fill="black"/>
<path fill-rule="evenodd" clip-rule="evenodd" d="M53.1478 26.5486C54.3159 26.7329 55.234 26.733 55.671 25.564C51.3775 23.5177 51.4132 19.2246 46.4792 16.9748C49.1922 14.9617 48.4611 13.0722 47.1994 11.1662C45.8662 13.5258 43.5681 13.8478 42.1581 13.0804C44.1426 12.357 44.8932 9.90381 46.0972 9.18865C45.3439 8.38019 44.3819 8.35263 43.263 9.11717C42.6584 7.48906 40.6626 8.0254 40.3632 8.0254C40.8855 8.54797 41.3801 9.23271 41.2867 9.96711C41.0805 11.6006 38.4279 11.3367 38.4279 11.3367C38.964 10.2338 38.7249 9.57644 37.5346 9.00997C37.1718 9.88731 34.3241 11.0699 34.1371 12.8027C33.8513 15.5117 37.059 17.1564 39.8739 18.6827C42.9717 20.3577 41.8364 22.1838 40.7121 22.2417C40.0881 24.1669 42.4742 24.5133 43.832 23.7323C43.8266 23.988 43.6534 25.5338 41.5726 25.6602C41.7485 26.2709 42.0922 26.4688 42.6364 26.6696C42.2295 26.9749 41.042 27.019 40.4154 27.019C40.4896 27.855 41.3994 28.5288 42.5373 28.6416C42.4467 28.8946 41.9409 29.3017 41.4874 29.4283C42.7161 30.652 46.02 29.8461 46.6908 29.1422C46.9987 28.8175 47.3752 29.277 47.007 29.7665C46.6276 30.267 44.9674 30.8282 43.6204 30.4128C43.4665 31.1664 43.7249 31.4525 43.9366 31.656C43.9366 31.656 42.6199 31.7879 42.2791 31.9722C42.4082 32.5388 43.0459 32.866 43.2686 33.0888C43.0432 33.2814 42.7764 33.7325 42.6803 34.0789C43.2852 34.3705 44.9289 34.8243 45.8113 33.8177C46.1686 33.4189 46.5589 33.6719 46.1933 34.1807C44.8959 35.9684 41.7924 35.996 40.6957 35.4377C40.6655 36.8375 41.2702 37.1264 41.9986 37.7039C39.7557 40.2864 41.2372 42.5829 39.6511 44.8437C42.6392 44.8437 44.5083 43.2126 45.0305 41.6863C45.0911 42.2281 45.377 42.7012 46.1714 42.8635C46.1108 42.2942 46.2868 41.7165 46.5781 41.1335C47.1829 41.6203 48.2852 41.7331 49.7283 41.7936C48.0927 39.0158 52.7217 36.1664 50.8855 32.3792C50.6134 31.81 51.4105 31.4469 51.4874 32.0273C51.9162 35.2754 53.8239 36.0068 55.4319 34.9948C54.9481 34.4668 54.7475 34.4778 54.4396 33.9964C55.5226 34.2852 56.0725 33.4987 56.3501 32.514C53.4254 31.4853 55.006 28.9606 53.1478 26.5486ZM53.3951 32.9954C53.4528 33.0888 53.604 34.156 54.0136 34.6702C51.8777 34.5327 52.8674 30.0332 50.7316 31.1169C50.1296 31.4195 49.9508 32.129 50.2286 32.7093C51.6249 35.6025 48.4418 38.1521 48.6206 40.6879C47.8343 40.6824 47.018 40.6604 46.5094 39.6016C46.2483 40.1297 45.8278 40.8723 45.5996 41.5873L44.9618 40.5009C44.5661 42.2996 42.8893 43.9609 40.6297 44.1121C41.7045 42.4013 40.4125 40.0637 43.0404 37.5802C42.7106 37.316 41.9546 36.8046 41.6826 36.4579C44.9069 36.8375 48.2659 34.288 46.7402 33.0778C45.7425 32.2885 45.3028 33.9277 43.7661 33.6526L44.3682 33.1329C44.1564 32.9239 43.9118 32.6516 43.6617 32.4453C44.3187 32.3655 45.0333 31.9475 45.0333 31.9475L44.643 31.3012C48.417 31.2956 48.5077 28.4078 46.9823 28.2923C46.2648 28.24 45.3302 29.5685 43.0074 29.2906C43.3016 28.9331 43.4224 28.3913 43.5654 27.9926C43.0047 27.9402 42.3421 27.9459 41.8144 27.6872C42.9497 27.5416 43.2356 27.1591 44.1784 26.4441L43.0844 26.0426C44.676 25.2477 44.5742 23.8643 44.6237 22.4232C43.7936 22.9018 42.8095 23.6443 41.7733 23.3005C41.5258 23.2181 41.3637 23.1025 41.3582 22.844C42.8509 22.2554 43.8018 19.959 40.234 18.0282C37.9606 16.7988 32.3917 14.0925 36.163 11.1745C36.6797 10.7784 37.2405 10.4208 37.7133 9.97802C38.3043 10.4318 37.4962 11.5595 37.2955 11.972C37.2955 11.972 38.5489 12.0985 38.8459 12.0985C40.7892 12.0902 42.8259 10.9407 41.7953 8.73497C42.5677 8.89443 42.6584 9.63974 42.8947 10.2751C43.3895 9.93955 44.2472 9.22166 44.915 9.32342C44.3736 11.0479 42.1114 12.6019 40.3493 12.9539C42.128 13.922 45.4263 14.6426 47.1609 12.5579C48.3759 14.9149 46.6826 15.8994 45.0196 17.1343C51.3528 20.0221 50.4155 23.2676 54.5716 25.8198C54.0356 26.0729 51.6276 25.564 51.4132 25.5338C52.3204 26.7026 52.7436 27.1976 53.002 27.767C53.2549 28.3005 53.3649 28.9001 53.615 30.2009C53.8129 31.2268 54.173 32.2501 55.4155 32.9293C54.9289 33.8067 53.8459 33.1136 53.3951 32.9954Z" fill="black"/>
<path fill-rule="evenodd" clip-rule="evenodd" d="M23.238 40.0941L24.1424 39.3269L24.005 39.0518C23.906 38.8538 23.9582 38.8427 24.0628 38.7658L24.541 38.411C24.6509 38.3202 24.7664 38.3313 24.9011 38.3642L26.3332 38.6998H24.8214C24.4724 38.7217 24.3705 38.8565 24.2441 39.115L24.1397 39.3269L23.7522 40.1244C23.6201 40.3995 23.5513 40.7652 23.8978 41.1778L24.1726 41.5051L23.6174 42.6299H24.0847L24.4694 41.8487C24.4998 41.8213 25.0689 41.3016 25.1897 40.7652C25.0248 40.6304 24.9094 40.537 25.0001 40.35L25.1732 39.9759C25.231 39.8522 25.2502 39.8027 25.4151 39.8329L26.9159 40.1574C27.1028 40.2097 27.3778 40.2922 27.5784 39.9896C27.7846 39.6761 27.8121 39.7092 28.2903 39.7559L29.0573 39.8383C30.1045 39.9374 31.1519 39.6761 31.5586 39.3516C31.7016 39.6761 31.9847 39.9265 32.1166 40.1793C32.1661 40.2729 32.0838 40.405 32.0204 40.57L31.16 42.6272H32.4877L33.2383 40.7514C33.3068 40.5728 33.4086 40.4297 33.4855 40.3582L33.0539 42.6299H34.3432L34.6841 40.383C34.7583 39.8824 34.7142 39.7228 34.4751 39.5165C33.9391 39.0627 33.9501 38.1112 33.7769 37.5337C33.8676 37.4814 33.9748 37.4539 34.1013 37.4703C34.3816 37.495 34.5933 38.213 34.9232 38.6749C35.5829 39.6018 36.4817 40.625 37.5126 39.1837C37.4135 39.0189 37.3063 38.8703 37.1799 38.7272L36.8913 38.3889C36.7237 38.2019 35.9266 37.2888 35.5939 36.9616C34.8379 36.1998 33.678 36.3153 33.2162 36.6866C32.1688 36.1364 31.0639 36.714 30.8028 36.6921L28.9996 36.582C28.9171 36.5765 28.7934 36.549 28.7054 36.4088L29.0408 36.2988C28.7274 34.9923 27.9385 33.9004 26.5613 33.7106C26.5613 33.7106 26.4816 33.2982 26.27 33.2184L25.8576 33.7025C25.7423 33.719 25.6157 33.7547 25.5113 33.7986L23.7522 33.1442L25.0716 34.4781C25.0716 34.4781 24.3871 35.4488 24.1919 35.6469C24.0628 35.8284 24.0736 35.9687 24.2193 36.142L24.4751 36.4775C24.6069 36.6507 24.7526 36.6453 24.9643 36.538L25.2529 36.3868C25.3793 36.2823 25.8026 36.4885 25.9841 36.3235C25.8687 36.7031 25.8109 37.0688 25.7834 37.3576L24.5988 37.2146C24.3403 37.1789 24.2221 37.2146 24.0655 37.3383L23.0539 38.1167C22.7241 38.3697 22.6224 38.807 22.8257 39.2333L23.238 40.0941ZM33.0238 40.317L32.2211 42.2971H31.7207L32.5235 40.3802C32.6058 40.1327 32.4493 40.0172 32.2486 39.7476C32.5455 39.9154 32.7599 40.0254 33.12 40.163C33.0896 40.218 33.0512 40.2482 33.0238 40.317ZM25.2831 36.0293L25.055 36.1503C24.8956 36.241 24.8159 36.2823 24.6784 36.1116L24.5794 35.9852C24.53 35.9246 24.5135 35.7789 24.6152 35.6635L25.5993 34.5165L24.6922 33.7712L25.8467 34.1975L26.27 33.6695C26.3937 33.774 26.3498 34.0792 26.3498 34.0792C26.817 34.0792 28.1776 34.7558 28.2299 36.4501C28.2299 36.4501 28.5377 36.9038 28.9308 36.9286L30.9347 37.0496C31.2673 37.0496 32.0974 36.417 33.1638 37.0138C33.4333 36.8515 33.7219 36.7223 34.0188 36.6894C34.9589 36.6206 35.6515 37.275 36.1657 37.9352C36.5422 38.4137 37.059 39.1453 37.059 39.1453C36.8364 39.4094 36.6191 39.4974 36.4351 39.4313C36.1573 39.2884 36.0666 39.0654 35.9788 38.7547C35.8386 38.2625 35.297 37.8417 35.297 37.8417C35.4812 38.1718 35.5197 38.5458 35.6076 38.8895C34.8243 38.114 34.6757 37.1679 34.1288 37.0358C33.887 36.9754 33.6038 37.0798 33.3426 37.3824C33.6176 38.0232 33.6038 38.7658 33.887 39.2636C34.1013 39.6348 34.1481 39.6679 34.2441 39.7503C34.4751 39.9154 34.3459 40.2152 34.3102 40.4324L34.0134 42.2944H33.5131L33.8429 40.4737C33.9446 39.9181 32.386 39.9181 31.5889 38.8593C30.9099 39.654 29.005 39.4561 28.1804 39.3323C27.8478 39.2828 27.5235 39.3049 27.342 39.6321C27.2349 39.8164 27.0561 39.7614 26.9463 39.7339L25.4425 39.4094C25.1787 39.3488 25.0632 39.4011 24.9478 39.6432L24.6482 40.2647C24.5822 40.4104 24.585 40.5178 24.7058 40.6361L24.8488 40.7873C24.7637 41.0842 24.4916 41.3126 24.4916 41.3126L24.1644 40.9441C24.005 40.7571 23.9967 40.4875 24.1231 40.2234L24.6097 39.2058C24.6674 39.0931 24.7719 38.9721 24.9753 38.9721L26.8334 38.9444L26.2645 38.0176C25.8411 37.3218 26.5448 36.0815 26.4375 35.4956C26.3799 36.2794 25.4317 35.9219 25.2831 36.0293ZM23.2656 38.3669L24.1451 37.6959C24.3019 37.5776 24.4063 37.5007 24.585 37.5227L25.8275 37.6877C25.8961 37.9846 26.094 38.2762 26.094 38.2762L24.7719 37.9984C24.585 37.9765 24.53 37.9846 24.3541 38.1112L23.7274 38.5842C23.6037 38.6805 23.5981 38.8346 23.6696 38.9858L23.7713 39.2031L23.3342 39.5331L23.1665 39.2196C22.9962 38.8868 22.9852 38.5815 23.2656 38.3669Z" fill="black"/>
<path fill-rule="evenodd" clip-rule="evenodd" d="M27.098 14.4911C27.579 14.824 28.4312 15.1788 28.4312 15.1788V14.6121L26.5536 13.8944C26.5536 13.8944 26.5536 14.1253 27.098 14.4911Z" fill="black"/>
<path fill-rule="evenodd" clip-rule="evenodd" d="M28.4278 13.8091V13.2425L26.2975 12.4807C26.2975 12.4807 26.5503 12.7502 27.0947 13.1215C27.5757 13.4516 28.4278 13.8091 28.4278 13.8091Z" fill="black"/>
<path fill-rule="evenodd" clip-rule="evenodd" d="M28.4282 12.5223V11.9531L26.0944 11.095C26.0944 11.095 26.5508 11.4635 27.095 11.8348C27.5759 12.1675 28.4282 12.5223 28.4282 12.5223Z" fill="black"/>
<path fill-rule="evenodd" clip-rule="evenodd" d="M34.9839 20.259H37.3698C37.271 19.9124 36.8998 19.5632 36.2043 19.5632C35.5447 19.5632 35.1488 19.9426 34.9839 20.259Z" fill="black"/>
<path fill-rule="evenodd" clip-rule="evenodd" d="M32.4879 11.095L30.1595 11.9531V12.5223C30.1595 12.5223 31.0117 12.1675 31.4927 11.8348C32.0342 11.4635 32.4879 11.095 32.4879 11.095Z" fill="black"/>
<path fill-rule="evenodd" clip-rule="evenodd" d="M32.0342 13.8944L30.1595 14.6148V15.1815C30.1595 15.1815 31.0117 14.824 31.4927 14.4939C32.0342 14.1253 32.0342 13.8944 32.0342 13.8944Z" fill="black"/>
<path fill-rule="evenodd" clip-rule="evenodd" d="M32.2872 12.4807L30.157 13.2425V13.8091C30.157 13.8091 31.0118 13.4543 31.4901 13.1242C32.0344 12.7502 32.2872 12.4807 32.2872 12.4807Z" fill="black"/>
<path fill-rule="evenodd" clip-rule="evenodd" d="M22.3781 19.5632C21.6827 19.5632 21.3116 19.9124 21.2128 20.259H23.6013C23.431 19.9426 23.0406 19.5632 22.3781 19.5632Z" fill="black"/>
<path fill-rule="evenodd" clip-rule="evenodd" d="M34.033 9.56555C34.033 8.22333 31.7791 7.02148 29.2914 7.02148C26.8037 7.02148 24.5498 8.22333 24.5498 9.56555L24.602 9.8955L25.5916 15.5969L20.8911 18.3389C20.3907 18.6332 19.7641 19.4418 19.6844 20.256H20.5421C20.685 19.4418 21.3253 18.5396 22.5266 18.5948C23.6123 18.6525 24.2556 19.3126 24.8933 20.256L25.0583 20.5035L25.2947 20.8748H18.3815C18.89 21.8951 19.371 22.9787 19.371 24.1532V38.5344C19.371 42.2336 22.2105 43.9966 25.2864 43.9966C27.6614 43.9966 27.9829 43.8892 29.2941 45.2012C30.6 43.8892 30.9214 43.9966 33.3019 43.9966C36.3751 43.9966 39.2172 42.2336 39.2172 38.5344V24.1559C39.2172 22.9814 39.6983 21.8978 40.2068 20.8775H33.2882L33.5273 20.5062L33.6922 20.2587C34.3272 19.3153 34.9732 18.6552 36.0589 18.5975C37.2548 18.5425 37.9005 19.4446 38.0408 20.2587H38.8958C38.8187 19.4446 38.1892 18.6332 37.6918 18.3417L32.9913 15.5996L33.9835 9.89823L34.033 9.56555ZM25.5118 10.22L29.0193 11.4137V16.9061L26.4355 15.5474L25.5118 10.22ZM26.375 21.8732C26.8368 22.5056 27.5844 22.9732 28.4695 23.1548C28.5438 23.4874 28.7252 23.8533 29.077 24.1476C28.9313 25.1295 29.3518 26.0453 30.4074 26.2873C30.5174 26.7879 30.828 27.1646 31.3475 27.3435L30.6135 28.1905C30.3332 28.5151 29.9675 28.6196 29.6653 28.5811L26.3887 28.2098C26.5316 27.8468 26.1523 27.426 25.1159 27.6047L26.4052 24.0018L25.619 22.3324L24.1292 23.603L24.0192 27.3819L23.387 27.0712C22.554 26.7137 22.3122 28.218 23.1039 28.2236L23.4172 28.2263C23.398 28.3803 23.4448 28.5507 23.5658 28.6032C23.4172 28.6663 23.3733 28.9469 23.5601 29.0459C23.3705 29.1339 23.3457 29.42 23.497 29.5437C23.3321 29.8215 23.3073 30.4237 23.8818 30.575C24.3518 30.6989 24.6458 30.1928 24.7422 29.8984L29.8384 31.4771C30.5613 31.6834 31.0726 31.5679 31.6719 31.0426L33.0024 29.8792C32.8345 30.641 33.1095 31.3259 33.6895 31.5542C33.6895 31.5542 33.607 32.239 33.6318 32.5442H20.3633V24.1559C20.3633 23.3748 20.1379 22.5938 19.8687 21.8732H26.375ZM31.856 25.0551C31.5757 25.5915 31.6031 26.2076 31.9329 26.7659L31.7131 26.9803C30.7565 26.8621 30.3799 25.4347 30.3799 25.4347C30.3606 25.564 30.3497 25.6878 30.3525 25.8142C29.7945 25.608 29.4425 25.113 29.4701 24.4337C29.6818 24.5519 29.9182 24.6344 30.1711 24.6785L30.2369 24.2603C29.5689 24.1448 29.1787 23.7269 29.0303 23.2317C28.9974 23.229 28.9698 23.2208 28.9395 23.2179C29.0577 23.2263 29.176 23.2373 29.2968 23.2373C29.6927 23.2373 30.0693 23.1767 30.4212 23.0722C30.6988 23.4683 31.1908 23.7516 31.6857 23.8065C31.6058 24.1366 31.6443 24.5464 31.856 25.0551ZM33.2717 28.8286C33.1754 28.958 33.0984 29.1064 33.0489 29.2687L32.5157 29.7582C32.623 28.9771 32.098 28.0558 31.6196 27.679L32.1858 27.1234L32.2986 27.239C32.1089 27.7367 32.4801 28.7131 33.2717 28.8286ZM30.696 28.5838L31.1358 28.1521C31.5811 28.5426 32.1695 29.4145 31.9852 30.2451L31.5069 30.6851C31.4079 30.7814 31.3063 30.8501 31.2019 30.9133C31.5015 30.1736 31.1193 29.0349 30.696 28.5838ZM29.7504 28.9496H29.7642C29.9236 28.9744 30.0941 28.9469 30.248 28.8836C30.5834 29.3623 30.8445 30.4513 30.4432 31.1306C30.2149 31.1362 29.9924 31.0948 29.7834 31.0344L29.6185 30.9849C29.9567 30.4596 29.9099 29.5298 29.7504 28.9496ZM28.6427 28.8121L29.2612 28.8892C29.3602 29.4034 29.2941 30.2919 28.967 30.7979L28.2468 30.5888C28.5631 30.1598 28.7115 29.2769 28.6427 28.8121ZM27.3535 28.6554L28.104 28.7433C28.1782 29.1559 28.0379 30.0332 27.7549 30.4513L26.9906 30.2313C27.2958 29.827 27.4056 29.1147 27.3535 28.6554ZM24.3161 28.4546C23.967 28.5673 23.8131 28.3142 23.8268 28.0998C24.5113 27.8495 24.8164 28.0119 25.017 28.1383C25.2012 28.2538 25.3552 28.5838 25.6024 28.7901C25.5613 29.0706 25.476 29.4776 25.3744 29.7499C24.6735 29.5712 24.6377 28.9523 24.8988 28.5756C24.7531 28.4051 24.5993 28.361 24.3161 28.4546ZM23.8268 29.8215C23.8268 29.8215 24.0358 29.9094 24.2996 29.9287C24.2694 30.0745 24.1566 30.212 23.978 30.1736C23.8296 30.1405 23.7635 29.9591 23.8268 29.8215ZM23.1369 27.8137C22.9636 27.6983 23.0406 27.4452 23.2331 27.4452C23.4448 27.4507 23.725 27.6899 24.0028 27.8082C24.0028 27.8082 23.2742 27.9072 23.1369 27.8137ZM23.8487 29.2714C24.0001 29.4172 24.4536 29.3623 24.4536 29.3623L24.4701 29.4529C24.2722 29.717 23.7223 29.5987 23.8487 29.2714ZM24.4591 28.9716C24.1346 29.1008 23.8021 28.9249 23.9038 28.7158C24.055 28.8533 24.4755 28.7846 24.4755 28.7846L24.4591 28.9716ZM24.9374 25.1955L24.3161 27.4591L24.5278 23.8065L25.4898 22.9842L25.9791 24.0596L24.7422 27.6076L25.0693 25.2202C25.0995 25.0497 24.9648 25.0304 24.9374 25.1955ZM24.9814 27.9403C24.9814 27.9403 25.6739 27.9072 25.8691 27.9815C26.012 28.042 25.9159 28.2841 25.729 28.2566C25.5339 28.2319 24.9814 27.9403 24.9814 27.9403ZM26.0671 28.4904L26.8202 28.5838C26.8779 28.9964 26.7707 29.6949 26.5014 30.0855L25.7729 29.8738C25.9655 29.4145 26.012 28.9827 26.0671 28.4904ZM38.2249 38.5372C38.2249 40.2864 37.4169 41.6148 36.0726 42.3519L36.5537 41.3727H36.0865L35.4679 42.6268C34.8274 42.8689 34.1018 43.0037 33.2991 43.0037C30.8472 43.0037 30.1985 43.1027 29.2914 44.0075C28.3816 43.1027 27.7329 43.0037 25.2837 43.0037C24.4866 43.0037 23.7608 42.8745 23.1231 42.6324H23.1396L23.7581 41.3727H23.2935L22.752 42.4756C22.6228 42.4151 22.4964 42.3491 22.3755 42.2776L22.8208 41.3727H22.359L22.0291 42.0466C20.9791 41.2737 20.3606 40.0636 20.3606 38.5372V33.0366H38.2195V38.5372H38.2249ZM38.7226 21.8732C38.4449 22.5938 38.2222 23.3748 38.2222 24.1559V32.5442H37.2464C36.8039 32.1153 36.43 30.6851 36.43 30.6851C36.1881 31.1994 36.4658 32.2418 36.7241 32.5442H35.4679C35.1573 32.1235 34.8879 30.6329 34.8879 30.6329C34.5113 31.0618 34.7505 32.2198 34.9842 32.5442H34.1485C34.0962 31.9475 34.2667 31.2984 34.2667 31.2984C33.8297 31.2187 33.3652 30.9876 33.3679 30.5035C33.5878 30.7098 33.6785 30.707 33.9835 30.7016L34.3382 30.421C33.1617 30.4597 33.1068 29.1669 34.0413 28.5618C33.1095 28.5921 32.414 28.0366 32.7521 27.0464C32.0896 26.7027 31.856 25.5804 32.3453 25.0882C31.9907 24.7031 31.9329 23.9469 32.1584 23.4325C31.6884 23.4325 31.1607 23.2455 30.8665 22.9237C30.8445 22.9347 30.8171 22.943 30.7922 22.9513C31.3805 22.712 31.878 22.3378 32.2134 21.8759H38.7226V21.8732ZM35.1657 17.8357C34.198 18.0035 33.3652 19.1889 32.6834 20.2587L32.6065 20.3824H31.878L31.8753 20.5089C31.801 21.3341 31.0177 22.4534 29.2914 22.4534C28.4943 22.4534 27.8922 22.2087 27.4801 21.8759C27.1227 21.5844 26.8972 21.2239 26.7873 20.8803C26.746 20.7566 26.7212 20.6299 26.7104 20.5089L26.7048 20.3824H25.9818L25.9049 20.2587C25.2204 19.1916 24.3876 18.0062 23.4228 17.8357L26.0588 16.3038L29.2968 18.064L32.5296 16.3038L35.1657 17.8357ZM32.1474 15.5474L29.5662 16.9061V11.4137L33.0737 10.22L32.1474 15.5474ZM29.2941 10.8142L25.4596 9.29874C25.784 8.52861 27.2876 7.87127 29.2941 7.87127C31.2979 7.87127 32.7988 8.52861 33.1231 9.29874L29.2941 10.8142Z" fill="black"/>
<path fill-rule="evenodd" clip-rule="evenodd" d="M37.8155 27.2939L37.8239 26.8731C36.5346 26.8428 36.2378 25.3219 36.2378 25.3219C35.8612 26.4412 36.8453 27.2774 37.8155 27.2939Z" fill="black"/>
<path fill-rule="evenodd" clip-rule="evenodd" d="M36.1882 29.8713L36.0591 29.4724C34.9596 29.753 34.3906 28.0092 34.3906 28.0092C34.0388 29.2771 35.2647 30.1738 36.1882 29.8713Z" fill="black"/>
<path fill-rule="evenodd" clip-rule="evenodd" d="M36.9524 28.2539C35.6384 28.4629 35.0998 26.9337 35.0998 26.9337C34.954 27.7671 35.4928 28.6115 36.3643 28.6994C36.1663 29.7858 37.1751 30.3441 38.0492 29.9563L37.9227 29.5768C37.1641 29.8326 36.4522 29.0816 36.9524 28.2539Z" fill="black"/>
<path fill-rule="evenodd" clip-rule="evenodd" d="M36.1656 23.8892L36.1766 23.4683C34.4421 23.1108 34.5878 21.9171 34.5878 21.9171C34.214 23.042 35.198 23.8726 36.1656 23.8892Z" fill="black"/>
<path fill-rule="evenodd" clip-rule="evenodd" d="M25.1761 41.373L24.5549 42.6325H25.0222L25.6406 41.373H25.1761Z" fill="black"/>
<path fill-rule="evenodd" clip-rule="evenodd" d="M26.1136 41.373L25.4951 42.6325H25.9652L26.5782 41.373H26.1136Z" fill="black"/>
<path fill-rule="evenodd" clip-rule="evenodd" d="M29.8685 41.373L29.25 42.6325H29.7144L30.3357 41.373H29.8685Z" fill="black"/>
<path fill-rule="evenodd" clip-rule="evenodd" d="M30.8092 41.373L30.1852 42.6325H30.6553L31.271 41.373H30.8092Z" fill="black"/>
<path fill-rule="evenodd" clip-rule="evenodd" d="M28.9309 41.373L28.3097 42.6325H28.777L29.3955 41.373H28.9309Z" fill="black"/>
<path fill-rule="evenodd" clip-rule="evenodd" d="M34.4151 42.6325H34.8823L35.5008 41.373H35.0335L34.4151 42.6325Z" fill="black"/>
<path fill-rule="evenodd" clip-rule="evenodd" d="M27.0531 41.373L26.4345 42.6325H26.9018L27.5203 41.373H27.0531Z" fill="black"/>
<path fill-rule="evenodd" clip-rule="evenodd" d="M27.989 41.373L27.3705 42.6325H27.8405L28.459 41.373H27.989Z" fill="black"/>
<path fill-rule="evenodd" clip-rule="evenodd" d="M25.8656 34.6014C25.7803 34.6014 25.7061 34.684 25.7061 34.7912C25.7061 34.8957 25.7803 34.9809 25.8656 34.9809C25.9535 34.9809 26.0305 34.8957 26.0305 34.7912C26.0278 34.684 25.9535 34.6014 25.8656 34.6014Z" fill="black"/>
<path fill-rule="evenodd" clip-rule="evenodd" d="M29.2934 6.17126C31.2176 6.17126 32.7596 6.80935 33.609 7.49409C33.609 7.49409 33.8646 5.96501 34.725 4.62279L33.1747 4.79603L32.3638 3.06888L30.8053 3.88021L29.2934 2.37854L27.7816 3.88021L26.2175 3.06888L25.4066 4.79603L23.8563 4.62279C24.7194 5.96501 24.9723 7.49409 24.9723 7.49409C25.8245 6.80935 27.3692 6.17126 29.2934 6.17126ZM25.6732 5.48364L26.4127 3.91595L27.7816 4.64489L29.2934 3.15141L30.8053 4.64489L32.1742 3.91595L32.9053 5.48364L33.8152 5.34342C33.5816 5.78073 33.4056 6.16293 33.2435 6.69927C32.2484 6.11901 30.7696 5.67065 29.2934 5.67065C27.8118 5.67065 26.3357 6.11901 25.3406 6.69927C25.1758 6.16293 25.0025 5.78073 24.7662 5.34342L25.6732 5.48364Z" fill="black"/>
<path fill-rule="evenodd" clip-rule="evenodd" d="M30.8774 3.08304C31.1027 3.10227 31.3034 2.93177 31.3225 2.70902C31.3446 2.48355 31.0148 1.88391 31.0148 1.88391C31.0148 1.88391 30.5227 2.41466 30.5062 2.64027C30.4843 2.8603 30.6547 3.06108 30.8774 3.08304Z" fill="black"/>
<path fill-rule="evenodd" clip-rule="evenodd" d="M33.4172 4.00431C33.618 4.11167 33.8625 4.03187 33.9697 3.83108C34.0797 3.63302 34.0082 2.95374 34.0082 2.95374C34.0082 2.95374 33.354 3.2481 33.2468 3.44874C33.1423 3.6468 33.2194 3.89437 33.4172 4.00431Z" fill="black"/>
<path fill-rule="evenodd" clip-rule="evenodd" d="M27.7081 3.08304C27.9362 3.06108 28.1039 2.86302 28.0846 2.64027C28.0627 2.41466 27.5761 1.88391 27.5761 1.88391C27.5761 1.88391 27.2491 2.48628 27.2683 2.70902C27.2848 2.93177 27.4854 3.10227 27.7081 3.08304Z" fill="black"/>
<path fill-rule="evenodd" clip-rule="evenodd" d="M25.1707 4.00431C25.3714 3.89437 25.4456 3.6468 25.341 3.44874C25.2366 3.2481 24.5797 2.95374 24.5797 2.95374C24.5797 2.95374 24.511 3.63302 24.6209 3.83108C24.7227 4.03187 24.9701 4.11167 25.1707 4.00431Z" fill="black"/>
<path fill-rule="evenodd" clip-rule="evenodd" d="M55.641 17.9756C56.1824 17.783 56.6003 17.2661 56.8092 16.7874C55.432 16.5894 51.7734 15.0519 48.7662 16.3034C49.8933 15.2335 50.9048 15.096 51.001 13.556C51.4682 13.8915 52.2572 14.0812 52.7026 13.2808C52.392 12.3649 51.6085 13.1076 51.4985 12.8545C51.3445 12.5024 52.4853 12.9619 52.73 11.771C51.8421 11.4657 51.5782 12.1917 51.4188 12.0239C51.273 11.8646 51.9824 11.5591 51.4601 10.5994C50.5364 11.1411 51.0174 11.749 50.8224 11.8178C50.5858 11.9111 50.7728 11.1658 49.7503 11.2016C49.6485 12.299 50.7095 12.3347 50.5364 12.5081C50.3247 12.7197 50.0499 11.8781 49.2775 12.3045C49.2912 13.1901 50.0086 13.6769 50.748 13.4679C50.6272 15.1511 49.0823 14.8375 47.9333 16.7352C50.3687 17.9839 51.4709 20.1621 52.9692 21.6692C53.4639 21.3173 54.3105 19.755 54.3105 19.755C55.9323 21.0119 57.073 19.7605 57.073 19.7605C56.515 19.1884 56.493 18.754 55.641 17.9756ZM53.277 18.2809C53.4446 18.6523 53.7772 19.9475 52.9828 20.935C52.0784 19.128 50.836 17.5796 49.8299 16.9113C49.6101 16.7683 49.9509 16.5179 50.5722 16.4354C52.4441 16.0806 54.6403 16.8727 55.6849 17.1506C55.1983 17.5135 54.8025 17.6786 54.3051 17.7391C55.0638 18.3771 55.6189 18.9162 56.0092 19.5158C55.2753 19.7001 54.8602 19.2352 53.277 18.2809Z" fill="black"/>
<path fill-rule="evenodd" clip-rule="evenodd" d="M37.6392 46.3726V44.3153C36.0504 45.0443 34.0301 45.6356 31.4297 45.8695L31.3114 46.6036C31.5314 46.634 31.8117 46.6614 32.1857 46.6862C31.2235 46.8182 29.9783 46.8815 29.2966 46.8815C28.6122 46.8815 27.3697 46.8182 26.4049 46.6862C26.7761 46.6614 27.0563 46.634 27.2763 46.6036L27.158 45.8695C24.5577 45.6356 22.5347 45.0443 20.9486 44.3153V46.3726L18.7935 47.2583C20.3906 48.0889 22.2268 48.7654 24.3487 49.3128L24.0959 50.1736C25.311 50.5311 27.2542 50.8941 29.2911 50.8941C31.3279 50.8941 33.2687 50.5284 34.4863 50.1736L34.2361 49.3128C36.3555 48.7654 38.1972 48.0889 39.7943 47.2583L37.6392 46.3726ZM19.9452 47.3051L21.3994 46.7192V45.0443C22.3339 45.4045 23.5599 45.7786 25.3191 46.1444L24.4945 48.8314C22.6996 48.419 21.1739 47.8633 19.9452 47.3051ZM29.2938 50.4018C27.6528 50.4018 26.0503 50.1571 24.6814 49.8189L25.5528 46.9998C26.1301 47.1346 27.5759 47.3105 29.2938 47.3105C31.0146 47.3105 32.4523 47.1316 33.0323 46.9998L33.9063 49.8189C32.5319 50.1571 30.9322 50.4018 29.2938 50.4018ZM34.096 48.8314L33.2714 46.1444C35.0305 45.7813 36.2565 45.4045 37.1911 45.0443V46.7192L38.6426 47.3051C37.4139 47.8633 35.8937 48.419 34.096 48.8314Z" fill="black"/>
<path fill-rule="evenodd" clip-rule="evenodd" d="M4.27734 19.755C4.27734 19.755 5.12398 21.3173 5.61597 21.6692C7.11678 20.1648 8.22176 17.9866 10.6544 16.7352C9.50269 14.8375 7.95797 15.1566 7.84243 13.4679C8.58185 13.6769 9.29659 13.1873 9.3131 12.3045C8.53793 11.8781 8.26309 12.7254 8.05412 12.5081C7.88103 12.3292 8.93922 12.299 8.84033 11.2016C7.81774 11.1686 8.0046 11.9111 7.7655 11.8178C7.57304 11.749 8.05412 11.1383 7.12783 10.5994C6.60829 11.562 7.32016 11.8646 7.17175 12.0239C7.01516 12.1917 6.74577 11.4684 5.86054 11.771C6.09978 12.9619 7.24595 12.5024 7.09209 12.8545C6.98215 13.1076 6.2014 12.3649 5.89355 13.2808C6.33343 14.084 7.1251 13.8942 7.58954 13.5587C7.68857 15.1016 8.69739 15.2308 9.82705 16.3034C6.81725 15.0519 3.15859 16.5894 1.7759 16.7901C1.9876 17.2661 2.40539 17.783 2.94689 17.9701C2.0948 18.7567 2.0727 19.1914 1.51483 19.7605C1.51483 19.7605 2.65282 21.0119 4.27734 19.755ZM2.57302 19.5185C2.96613 18.9189 3.51868 18.3771 4.28279 17.7419C3.78248 17.6786 3.38938 17.5135 2.90011 17.1506C3.94738 16.8727 6.14643 16.0779 8.02111 16.4354C8.63682 16.5179 8.98328 16.7683 8.7578 16.9113C7.75172 17.5796 6.50653 19.128 5.60219 20.935C4.81053 19.9475 5.14594 18.655 5.30811 18.2836C3.72751 19.2352 3.31517 19.7001 2.57302 19.5185Z" fill="black"/>
<path fill-rule="evenodd" clip-rule="evenodd" d="M27.9767 18.6084V19.5133C28.2874 19.1365 28.8922 19.2107 28.8922 19.2107V20.5171C28.8922 20.5171 28.8702 21.1608 28.6447 21.4358H29.2962H29.9478C29.7195 21.1608 29.7003 20.5171 29.7003 20.5171V19.2134C29.7003 19.2134 30.3022 19.1393 30.6129 19.516V18.6111H29.2962H27.9767V18.6084Z" fill="black"/>
<path d="M77.2479 33.3969V24.6584H82.4058V21.4785H68.3341V24.6584H73.4921V33.3969H77.2479ZM87.5395 28.4142V21.4785H83.909V33.3969H87.114L93.3735 26.4612V33.3969H97.0042V21.4785H93.7993L87.5395 28.4142ZM109.218 28.9651V33.3969H112.849V21.4785H109.218V25.8352H103.384V21.4785H99.7538V33.3969H103.384V28.9651H109.218ZM122.96 33.3969C123.786 33.3969 124.538 33.3218 125.239 33.1214C127.117 32.5958 128.342 31.0684 128.342 28.99C128.342 27.012 127.293 25.6349 125.615 25.0088C124.812 24.7084 123.862 24.6833 122.96 24.6833H119.229V21.4785H115.598V33.3969H122.96ZM122.334 27.4877C122.835 27.4877 123.31 27.4877 123.736 27.638C124.337 27.8382 124.687 28.3391 124.687 28.94C124.687 29.566 124.337 30.0918 123.761 30.3421C123.36 30.5175 122.96 30.5175 122.334 30.5175H119.229V27.4877H122.334ZM134.853 28.89L139.184 33.3969H144.017L137.983 27.1872L143.792 21.4785H139.234L134.853 25.9604H133.851V21.4785H130.222V33.3969H133.851V28.89H134.853ZM151.487 21.1529C146.604 21.1529 143.675 23.9072 143.675 27.4626C143.675 31.0182 146.604 33.7725 151.487 33.7725C156.346 33.7725 159.275 31.0182 159.275 27.4626C159.275 23.9072 156.346 21.1529 151.487 21.1529ZM151.487 30.8679C149.059 30.8679 147.508 29.4157 147.508 27.4626C147.508 25.5098 149.059 24.0824 151.487 24.0824C153.891 24.0824 155.468 25.5098 155.468 27.4626C155.468 29.4157 153.891 30.8679 151.487 30.8679ZM171.366 20.8024H167.736V22.0042C163.178 22.1044 160.449 24.0324 160.449 27.4377C160.449 30.8429 163.178 32.6207 167.736 32.7209V33.9227H171.366V32.7209C175.947 32.6207 178.677 30.8429 178.677 27.4377C178.677 24.0324 175.947 22.1044 171.366 22.0042V20.8024ZM167.736 30.1669C165.231 30.0667 164.13 29.04 164.13 27.4377C164.13 25.8352 165.231 24.6833 167.736 24.5833V30.1669ZM171.366 24.5833C173.896 24.6833 174.971 25.8352 174.971 27.4377C174.971 29.04 173.896 30.0667 171.366 30.1669V24.5833ZM190.757 20.8024H187.125V22.0042C182.569 22.1044 179.84 24.0324 179.84 27.4377C179.84 30.8429 182.569 32.6207 187.125 32.7209V33.9227H190.757V32.7209C195.339 32.6207 198.067 30.8429 198.067 27.4377C198.067 24.0324 195.339 22.1044 190.757 22.0042V20.8024ZM187.125 30.1669C184.622 30.0667 183.52 29.04 183.52 27.4377C183.52 25.8352 184.622 24.6833 187.125 24.5833V30.1669ZM190.757 24.5833C193.285 24.6833 194.362 25.8352 194.362 27.4377C194.362 29.04 193.285 30.0667 190.757 30.1669V24.5833Z" fill="black"/>
</svg>
